<?xml version="1.0" encoding="iso-8859-1"?>
<!-- Generator: Adobe Illustrator 19.0.0, SVG Export Plug-In . SVG Version: 6.00 Build 0)  -->
<svg version="1.1" id="Layer_1" xmlns="http://www.w3.org/2000/svg" xmlns:xlink="http://www.w3.org/1999/xlink" x="0px" y="0px"
	 viewBox="0 0 360.329 360.329" style="enable-background:new 0 0 360.329 360.329;" xml:space="preserve">
<g>
	<g>
		<path d="M216.709,100.583l-96.838-96.84C117.458,1.33,114.248,0,110.834,0s-6.624,1.33-9.037,3.744l-53.8,53.799
			c-4.983,4.984-4.983,13.091,0,18.074l96.84,96.839c2.414,2.414,5.624,3.744,9.037,3.744s6.623-1.33,9.036-3.744l16.14-16.14
			l-7.313-7.313l-16.14,16.14c-0.621,0.621-1.347,0.714-1.723,0.714c-0.376,0-1.102-0.092-1.723-0.714l-96.84-96.839
			c-0.95-0.95-0.95-2.496,0-3.446l53.8-53.799c0.621-0.621,1.346-0.714,1.723-0.714c0.378,0,1.103,0.093,1.723,0.714l96.84,96.84
			c0.621,0.621,0.714,1.345,0.714,1.721c0,0.377-0.092,1.102-0.714,1.724l-16.14,16.14l7.314,7.313l16.139-16.139
			c2.414-2.414,3.744-5.624,3.744-9.038C220.453,106.206,219.123,102.996,216.709,100.583z"/>
	</g>
</g>
<g>
	<g>
		<path d="M356.589,240.462l-96.839-96.838c-2.413-2.414-5.623-3.744-9.037-3.744s-6.624,1.33-9.037,3.744l-16.14,16.14l7.314,7.313
			l16.14-16.14c0.621-0.621,1.346-0.714,1.722-0.714c0.377,0,1.102,0.093,1.723,0.714l96.839,96.838c0.95,0.95,0.95,2.496,0,3.446
			l-53.8,53.8c-0.95,0.952-2.495,0.95-3.445,0l-96.839-96.839c-0.95-0.95-0.95-2.495,0-3.445l16.14-16.14l-7.314-7.313l-16.14,16.14
			c-4.982,4.983-4.982,13.091,0,18.074l96.839,96.839c2.492,2.491,5.764,3.737,9.037,3.737c3.273,0,6.545-1.245,9.037-3.736
			l53.8-53.8C361.571,253.553,361.571,245.445,356.589,240.462z"/>
	</g>
</g>
<g>
	<g>
		
			<rect x="197.122" y="89.569" transform="matrix(0.7071 -0.7071 0.7071 0.7071 -52.5032 189.3327)" width="10.343" height="136.949"/>
	</g>
</g>
<g>
	<g>
		<path d="M81.258,197.819c-44.805,0-81.255,36.452-81.255,81.255c0,44.804,36.451,81.255,81.255,81.255
			c44.804,0,81.255-36.451,81.255-81.255C162.513,234.27,126.062,197.819,81.258,197.819z M81.258,349.986
			c-39.101,0-70.912-31.811-70.912-70.912s31.811-70.912,70.912-70.912c39.101,0,70.912,31.811,70.912,70.912
			S120.358,349.986,81.258,349.986z"/>
	</g>
</g>
<g>
	<g>
		<rect x="76.089" y="233.43" width="10.343" height="91.3"/>
	</g>
</g>
<g>
	<g>
		<rect x="35.609" y="273.9" width="91.3" height="10.343"/>
	</g>
</g>
<g>
</g>
<g>
</g>
<g>
</g>
<g>
</g>
<g>
</g>
<g>
</g>
<g>
</g>
<g>
</g>
<g>
</g>
<g>
</g>
<g>
</g>
<g>
</g>
<g>
</g>
<g>
</g>
<g>
</g>
</svg>
